<?xml version="1.0" standalone="no"?>
<!DOCTYPE svg PUBLIC "-//W3C//DTD SVG 20010904//EN"
 "http://www.w3.org/TR/2001/REC-SVG-20010904/DTD/svg10.dtd">
<svg version="1.0" xmlns="http://www.w3.org/2000/svg"
 width="260.000000pt" height="260.000000pt" viewBox="0 0 260.000000 260.000000"
 preserveAspectRatio="xMidYMid meet">
<metadata>
Created by potrace 1.14, written by Peter Selinger 2001-2017
</metadata>
<g transform="translate(0.000000,260.000000) scale(0.100000,-0.100000)"
fill="#000000" stroke="none">
<path d="M75 1500 c-2 -4 -4 -59 -4 -123 0 -84 3 -117 12 -118 7 -1 41 -2 77
-3 l65 -1 0 -40 0 -40 -75 0 -75 0 -3 -43 -3 -42 140 0 141 0 0 125 0 125 -78
0 -79 0 -1 40 -2 40 80 0 80 0 0 43 0 42 -136 1 c-74 0 -137 -3 -139 -6z"/>
<path d="M429 1500 c-1 -3 -2 -96 -3 -207 l-1 -203 60 0 61 0 -1 79 c0 69 2
80 17 84 16 5 18 -3 18 -79 l0 -84 60 0 c33 0 60 3 61 8 0 4 1 97 1 207 l1
200 -59 0 -59 0 -3 -83 c-2 -72 -5 -83 -20 -80 -14 3 -17 16 -18 73 0 39 -2
75 -2 81 -2 11 -111 15 -113 4z"/>
<path d="M782 1492 c-3 -8 -5 -100 -5 -206 l-1 -191 62 -3 62 -3 0 80 c0 73
10 104 28 87 3 -4 6 -43 6 -86 l0 -80 61 0 61 0 -2 203 c-1 111 -2 204 -3 207
0 3 -60 5 -132 6 -104 0 -132 -3 -137 -14z m153 -115 c0 -29 -3 -37 -17 -37
-14 0 -18 8 -18 41 0 33 3 40 17 37 12 -2 17 -14 18 -41z"/>
<path d="M1130 1298 l0 -208 60 0 60 0 0 79 c0 44 4 82 8 85 21 13 31 -14 29
-84 l-2 -75 63 -3 62 -3 0 106 c0 98 -1 105 -20 105 -13 0 -20 7 -20 20 0 13
7 20 20 20 20 0 21 5 18 82 l-3 82 -137 1 -138 1 0 -208z m157 82 c0 -32 -4
-40 -19 -40 -14 0 -18 8 -18 40 0 32 4 40 18 40 15 0 19 -8 19 -40z"/>
<path d="M1492 1501 c-5 -3 -10 -93 -10 -208 l-1 -203 139 0 140 0 0 43 0 42
-77 0 -78 0 -1 35 c-2 43 4 47 66 44 l50 -2 0 44 0 44 -58 0 -59 0 -1 40 -2
40 81 0 80 0 -3 42 -3 43 -127 1 c-70 1 -131 -2 -136 -5z"/>
<path d="M2034 1501 c-2 -3 -4 -96 -4 -208 l1 -203 60 0 c40 0 59 4 60 13 1
18 1 358 0 383 -1 18 -7 20 -56 20 -31 0 -58 -2 -61 -5z"/>
<path d="M2227 1490 c-1 -8 -1 -27 1 -42 4 -25 8 -28 43 -28 l38 0 -1 -162 -1
-163 61 -3 62 -3 0 165 0 165 38 3 c34 3 37 6 38 33 0 17 -1 35 -3 40 -2 7
-53 11 -138 10 -111 0 -135 -3 -138 -15z"/>
<path d="M1843 1211 c-5 -3 -9 -32 -9 -63 l-1 -58 61 0 62 0 0 60 c0 34 -5 60
-11 61 -48 5 -95 5 -102 0z"/>
</g>
</svg>
